<?xml version="1.0" encoding="utf-8"?>
<!-- Generator: Adobe Illustrator 26.5.0, SVG Export Plug-In . SVG Version: 6.00 Build 0)  -->
<svg version="1.1" id="Ebene_1" xmlns="http://www.w3.org/2000/svg" xmlns:xlink="http://www.w3.org/1999/xlink" x="0px" y="0px"
	 viewBox="0 0 558.7 313.3" style="enable-background:new 0 0 558.7 313.3;" xml:space="preserve">
<style type="text/css">
	.st0{fill:#105032;}
</style>
<path class="st0" d="M64.5,101.7c0-32.2-60.6-28.8-60.6-64.2c0-19.2,15.9-31.2,37-31.2c13.3,0,22.6,3.9,30.1,8.5v25.7h-2.2
	c-3.3-18.7-16.3-28.7-31.6-28.7C24,11.9,14.1,20,14.1,32c0,29.6,60.8,27.2,60.8,63.4c0,20.9-14.4,34.8-38.5,34.8
	c-13.7,0-24.8-3.5-32.7-8.5V91.4h2.2c3.1,24,20.5,33.1,35.7,33.1C56,124.5,64.5,114.8,64.5,101.7z"/>
<path class="st0" d="M165.8,69.2h-64.2c-0.6,2.8-0.7,5.7-0.7,8.7c0,30.1,15.7,40.7,32.4,40.7c14.2,0,25.9-7.4,30.1-26.4h3.1
	c-3.5,24.6-15.3,38.1-37.9,38.1c-20.2,0-39-13.7-39-44.6c0-31.4,21.4-51.6,44.9-51.6c20.3,0,31.2,15.2,31.2,31.4V69.2z M102.8,63.6
	h45.8c2.6,0,3.3-0.9,3.3-3.1c0-9.4-6.3-20.2-20.9-20.2C117.4,40.3,106.8,49.2,102.8,63.6z"/>
<path class="st0" d="M217,130.2h-2.2l-30.5-76.5c-4.1-10.2-7.6-13.7-15-15.5v-2.2h35.7v2.2c-8.7,1.5-12.4,2.4-7.4,15.3l21.6,56
	l20.5-53.4c4.8-13,1.1-16.6-7.8-17.9v-2.2h32.4v2.2c-7.9,1.8-13.9,8-17.9,18.1L217,130.2z"/>
<path class="st0" d="M338.6,69.2h-64.2c-0.6,2.8-0.7,5.7-0.7,8.7c0,30.1,15.7,40.7,32.4,40.7c14.2,0,25.9-7.4,30.1-26.4h3.1
	c-3.5,24.6-15.3,38.1-37.9,38.1c-20.2,0-39-13.7-39-44.6c0-31.4,21.4-51.6,44.9-51.6c20.3,0,31.2,15.2,31.2,31.4V69.2z M275.6,63.6
	h45.8c2.6,0,3.3-0.9,3.3-3.1c0-9.4-6.3-20.2-20.9-20.2C290.2,40.3,279.6,49.2,275.6,63.6z"/>
<path class="st0" d="M445.6,11.3c0,4.9-3.7,9.1-9.1,9.1c-5.4,0-9.1-4.1-9.1-9.1s3.7-9.1,9.1-9.1C441.9,2.2,445.6,6.4,445.6,11.3z"/>
<path class="st0" d="M408.6,45.5l-4.2-0.5c-2.9-0.4-5.8-0.4-8.6,0.1c-9.1,1.5-16.1,6.8-20.4,17.3v52.8c0,10.2,2.3,9.3,14.7,11v2.2
	h-38.7v-2.2c8.5-2,11-0.8,11-11V47.3c0-1.5-1.2-2.7-2.7-2.7h-10.9v-2.2l25.7-8.3v21.4c6.8-15.3,15.7-22.4,29.8-22.4h4.4v0
	C409.5,37.2,409.5,41.3,408.6,45.5L408.6,45.5z"/>
<path class="st0" d="M442.7,115.1c0,10.2,2,9.3,9.2,11v2.2h-31.3v-2.2c7.2-1.7,9.2-0.8,9.2-11V47.3c0-1.5-1.2-2.7-2.7-2.7h-10.9
	v-2.2l26.6-8.3V115.1z"/>
<path class="st0" d="M483.5,115.1c0,10.2,2.5,8.9,11,11v2.2h-35v-2.2c8.5-2,11-0.8,11-11V47.3c0-1.5-1.2-2.7-2.7-2.7h-10.9v-2.2
	l25.7-8.3v18.1c8.1-10.4,18.5-18.1,31.6-18.1c15.7,0,24.8,11.3,24.8,29.8v51.3c0,10.2,2.5,8.9,11,11v2.2h-35v-2.2
	c8.5-2,11-0.8,11-11V65.7c0-14.2-5.9-21.1-17.9-21.1c-10.4,0-17.9,5.2-24.6,14V115.1z"/>
<path class="st0" d="M0,161.2v-2.2h41v2.2c-9.8,2.4-13.9-0.2-13.9,10v108c0,17.7-5.2,21.4-28.1,29.6v-2.6
	c12.2-5.5,14.8-11.5,14.8-25.9V171.1C13.9,161,9.8,163.6,0,161.2z"/>
<path class="st0" d="M347.3,201c8-10.2,17.6-16.8,30.3-16.8c23.1,0,34.8,19.2,34.8,42.7c0,34.6-24.6,53.4-48.6,53.4
	c-10.2,0-17-2.2-22.4-4.8l-4.8,4.8h-2.2V163.2c0-1.5-1.2-2.7-2.7-2.7h-10.9v-2.2l26.6-9.2V201z M347.3,209.3V267
	c5.2,4.1,11.6,7,19.8,7c20.5,0,33.1-17.2,33.1-42.2c0-21.8-8.9-37.3-26.4-37.3C362.1,194.5,354.1,200.4,347.3,209.3z"/>
<g>
	<path class="st0" d="M269,279.2c-30.1,0-47.9-21.6-47.9-47c0-25.8,13.7-47.6,48.3-47.6c30.1,0,47.9,21.6,47.9,47
		C317.2,257.5,303.5,279.2,269,279.2z M264.3,265c29.4,0,47.3-14.6,47.3-35.2c0-18.1-13.5-30.9-37.7-30.9
		c-29.4,0-47.3,14.4-47.3,35.2C226.6,252.2,240.1,265,264.3,265z"/>
</g>
<path class="st0" d="M204.5,262.5l-26.4-40l13.8-14.7l0,0c10-11.3,15.5-15.2,24.4-18.9v-2.2h-34.2v2.2c9.4,2,13,5.6,3,17.9
	l-29.5,31.6v-87.8l-26.6,8.3v2.2h10.9c1.5,0,2.7,1.2,2.7,2.7v100.8c0,10.2-2.5,10.2-11,12.2v2.2h35v-2.2c-8.5-2-11-2-11-12.2v-18.1
	l0,0l13.8-14.8l29.9,47.3h23.3v-2.2C216.5,276,210.9,272.6,204.5,262.5z"/>
<path class="st0" d="M122.9,271.3c-1.4,1.2-2.9,1.9-4.3,1.9c-4.3,0-7.8-2.5-7.8-9.4v-55.7c0-13.9-7.8-23.3-21.3-23.3
	c-6.1,0-13.5,1.2-25,9.1c-11.8,8.1-17.7,16.6-16.6,23.8c3.5,0.6,8.5,0.2,12.6-1.8c-0.8-11.7,9.2-22.4,21.4-22.4
	c10.7,0,15.9,7.1,15.9,16.3v17.9l-44.7,22.9c-4.8,2.4-6.8,6.1-6.8,10.4c0,10.7,9.6,20,22.6,20c13.1,0,25.3-8.5,30-22.9v5
	c0,12,6.7,17,14.8,17c5,0,9.2-2.5,12.3-6.2L122.9,271.3z M97.9,242.3c0,17.2-11.3,28.7-25.3,28.7c-8.5,0-13.3-6.5-13.3-13.1
	c0-2.6,1.5-4.6,5.5-6.8l33.1-17.4V242.3z"/>
</svg>
